<?xml version="1.0" encoding="utf-8"?>
<!-- Generator: Adobe Illustrator 26.4.1, SVG Export Plug-In . SVG Version: 6.00 Build 0)  -->
<svg version="1.1" id="Layer_1" xmlns="http://www.w3.org/2000/svg" xmlns:xlink="http://www.w3.org/1999/xlink" x="0px" y="0px"
	 viewBox="0 0 565.3 641.2" style="enable-background:new 0 0 565.3 641.2;" xml:space="preserve">
<style type="text/css">
	.st0{fill:#264DE4;}
	.st1{fill:#2965F1;}
	.st2{fill:#EBEBEB;}
	.st3{fill:#FFFFFF;}
</style>
<g>
	<path class="st0" d="M282.3,641.2L51.4,577.1L0,0h565.3l-51.5,577L282.3,641.2L282.3,641.2z"/>
	<path class="st1" d="M469.7,540.2l44-493.1H282.7v544.9L469.7,540.2L469.7,540.2z"/>
	<path class="st2" d="M117.9,261.2l6.3,70.8h158.4v-70.8H117.9L117.9,261.2z"/>
	<path class="st2" d="M105.2,118l6.4,70.8h171V118H105.2L105.2,118z"/>
	<path class="st2" d="M282.7,445l-0.3,0.1l-78.8-21.3l-5-56.4h-71l9.9,111.1l145,40.2l0.3-0.1V445L282.7,445z"/>
	<path class="st3" d="M446.9,261.2L459.7,118H282.4v70.8h99.7l-6.4,72.5h-93.3V332h87.2l-8.2,91.8l-78.9,21.3v73.6l145.1-40.2
		l1.1-12l16.6-186.3L446.9,261.2L446.9,261.2z"/>
</g>
</svg>
