<?xml version="1.0" encoding="utf-8"?>
<!-- Generator: Adobe Illustrator 26.4.1, SVG Export Plug-In . SVG Version: 6.00 Build 0)  -->
<svg version="1.1" id="Layer_1" xmlns="http://www.w3.org/2000/svg" xmlns:xlink="http://www.w3.org/1999/xlink" x="0px" y="0px"
	 viewBox="0 0 565.3 641.2" style="enable-background:new 0 0 565.3 641.2;" xml:space="preserve">
<style type="text/css">
	.st0{fill:#E44D26;}
	.st1{fill:#F16529;}
	.st2{fill:#EBEBEB;}
	.st3{fill:#FFFFFF;}
</style>
<path class="st0" d="M565.3,0l-51.5,577l-231.5,64.2L51.5,577.1L0,0H565.3L565.3,0z"/>
<path class="st1" d="M282.7,592.1l187.1-51.9l44-493.1H282.7V592.1z"/>
<path class="st2" d="M182.5,188.7h100.1V118H105.2l1.7,19l17.4,195h158.4v-70.8H189L182.5,188.7z M198.5,367.4h-71l9.9,111.1
	l145,40.2l0.3-0.1V445l-0.3,0.1l-78.8-21.3L198.5,367.4L198.5,367.4z"/>
<path class="st3" d="M282.4,332h87.2l-8.2,91.8l-78.9,21.3v73.6l145.1-40.2l1.1-12l16.6-186.3l1.7-19H282.4V332L282.4,332z
	 M282.4,188.6v0.2h171l1.4-15.9l3.2-35.9l1.7-19H282.4V188.6L282.4,188.6z"/>
</svg>