<?xml version="1.0" encoding="utf-8"?>
<!-- Generator: Adobe Illustrator 26.4.1, SVG Export Plug-In . SVG Version: 6.00 Build 0)  -->
<svg version="1.1" id="Layer_1" xmlns="http://www.w3.org/2000/svg" xmlns:xlink="http://www.w3.org/1999/xlink" x="0px" y="0px"
	 viewBox="0 0 119.5 126.7" style="enable-background:new 0 0 119.5 126.7;" xml:space="preserve">
<style type="text/css">
	.st0{fill:#ECDAD1;}
</style>
<g transform="matrix(0.07781347632408142, 0, 0, 0.07781347632408142, 229.38809204101562, 167.24493408203125)">
	<path class="st0" d="M-1492.4-1182.6c-109.7,99.4-251.6,154.4-399.5,154.4c-328.1,0-595.2-267.1-595.2-595.2
		c0-147.9,54.8-289.7,154.4-399.5c30.7-33.9-2.2-87.3-46.5-74.7c-323.8,91.6-565.8,389.8-565.8,748.7
		c0,430.2,348.1,778.3,778.3,778.3c358.2,0,656.9-241,748.9-565.8C-1405.1-1180.4-1458.3-1213.6-1492.4-1182.6z M-2166.6-662.2
		c-378.6,0-686.7-308.1-686.7-686.7c0-254.3,141.8-485,358.6-603.2c-54.8,100.1-83.9,212.8-83.9,328.6
		c0,378.6,308.1,686.7,686.7,686.7c115.8,0,228.7-29.2,328.6-83.9C-1681.6-804-1912.3-662.2-2166.6-662.2z"/>
	<path class="st0" d="M-2186.5-1495.2l108.4,54.3l54.3,108.4c7.9,15.5,23.6,25.4,40.8,25.4c17.3,0,33.2-9.9,40.8-25.4l54.3-108.4
		l108.4-54.3c15.5-7.9,25.4-23.6,25.4-40.8s-9.9-33.2-25.4-41.1l-108.4-54.3l-54.3-108.4c-7.9-15.5-23.6-25.4-40.8-25.4
		c-17.3,0-33.2,9.9-40.8,25.4l-54.3,108.4l-108.4,54.3c-15.5,7.9-25.4,23.6-25.4,41.1C-2211.9-1518.8-2202.3-1503.1-2186.5-1495.2z
		 M-2023.6-1556.3c9-4.5,16.2-11.7,20.4-20.4l20.2-40.2l20.2,40.2c4.5,8.8,11.7,15.9,20.4,20.4l40.2,20.2l-40.2,20.2
		c-8.8,4.5-15.9,11.7-20.4,20.4l-20.2,40.2l-20.2-40.2c-4.5-8.8-11.7-15.9-20.4-20.4l-40.2-20.2L-2023.6-1556.3z"/>
	<path class="st0" d="M-1708.8-1852.5h45.8v45.8c0,25.4,20.4,45.8,45.8,45.8c25.4,0,45.8-20.4,45.8-45.8v-45.8h45.8
		c25.4,0,45.8-20.4,45.8-45.8s-20.4-45.8-45.8-45.8h-45.8v-45.8c0-25.4-20.4-45.8-45.8-45.8s-45.8,20.4-45.8,45.8v45.8h-45.8
		c-25.4,0-45.8,20.4-45.8,45.8C-1754.5-1872.9-1733.9-1852.5-1708.8-1852.5z"/>
</g>
</svg>